<?xml version="1.0" encoding="UTF-8"?><svg id="a" xmlns="http://www.w3.org/2000/svg" viewBox="0 0 100.17 163.36"><defs><style>.b{letter-spacing:0em;}.c{font-family:AauxNext-Ultra, Aaux Next;font-size:1.99px;}.c,.d,.e,.f{fill:#1d1d1b;}.g{letter-spacing:0em;}.d{font-family:TheMix-7Bold, TheMix;font-size:4.3px;}.e{fill-rule:evenodd;}.h{letter-spacing:-.03em;}.i{fill:#010101;}</style></defs><path class="i" d="M88.96,148.64c-1.43-.12-2.62-.71-3.59-1.76-.97-1.06-1.45-2.3-1.45-3.72,0-.85,.19-1.65,.57-2.41,.38-.76,.91-1.38,1.6-1.88l.96,.98c-.55,.36-.99,.83-1.31,1.43s-.47,1.22-.47,1.88c0,1.07,.35,1.99,1.05,2.76,.7,.77,1.58,1.22,2.64,1.35v1.37Zm1.03,0v-1.37c1.08-.14,1.96-.6,2.64-1.36,.68-.77,1.02-1.68,1.02-2.75,0-1.13-.38-2.1-1.15-2.91-.77-.81-1.72-1.23-2.85-1.26h-.34l.98,1-.82,.83-2.53-2.55,2.53-2.56,.82,.83-1.08,1.08h.34c1.52,0,2.81,.54,3.88,1.63,1.06,1.09,1.59,2.39,1.59,3.92,0,1.43-.48,2.66-1.45,3.71-.97,1.05-2.16,1.64-3.57,1.77Z"/><path class="i" d="M96.78,144.81v-4.31l3.39,2.16-3.39,2.16Z"/><path class="i" d="M96.78,114.07v-4.31l3.39,2.16-3.39,2.16Z"/><path class="i" d="M89.48,114.48l-2.93-2.93,.8-.79,1.57,1.59v-4.86h1.12v4.86l1.57-1.59,.82,.79-2.95,2.93Zm-3.6,2.61c-.29,0-.56-.11-.78-.33-.23-.22-.34-.48-.34-.78v-2.26h1.12v2.26h7.2v-2.26h1.11v2.25c0,.31-.11,.58-.34,.8-.23,.22-.48,.33-.77,.33h-7.2Z"/><path class="i" d="M94.43,73.75l.33-2.33h-1.2c-.06,0-.11-.03-.14-.08s-.03-.11,.02-.15l2.02-3.4h.33l-.33,2.33h1.19s.09,.03,.13,.08,.04,.11,0,.15l-2.02,3.4h-.33Z"/><g><rect class="f" x="93.85" y="98.53" width="2.63" height=".32" transform="translate(190.32 197.37) rotate(-180)"/><rect class="f" x="92.48" y="97.59" width="5.26" height=".51" transform="translate(190.21 195.69) rotate(-180)"/><rect class="f" x="91.16" y="96.55" width="7.88" height=".62" transform="translate(190.21 193.72) rotate(-180)"/><rect class="f" x="94.86" y="92.02" width=".61" height="4.85" transform="translate(190.32 188.89) rotate(-180)"/><rect class="f" x="93.03" y="90.27" width=".61" height="4.11" transform="translate(1.01 185.65) rotate(-90)"/></g><text class="d" transform="translate(92.73 79.58)"><tspan class="b" x="0" y="0">T</tspan><tspan x="2.17" y="0">X</tspan></text><text class="d" transform="translate(92.48 86.78)"><tspan x="0" y="0">RX</tspan></text><g><path class="i" d="M17.68,20.38c-.77,0-1.42-.27-1.96-.81-.54-.54-.81-1.2-.81-1.97s.27-1.43,.81-1.97c.54-.54,1.19-.81,1.96-.81h4.34c.77,0,1.42,.27,1.96,.81,.54,.54,.81,1.2,.81,1.97,0,.78-.27,1.43-.81,1.97-.54,.54-1.19,.81-1.96,.81h-4.34Zm4.33-.83c.55,0,1.01-.19,1.39-.57,.38-.38,.57-.84,.57-1.38s-.19-1-.57-1.38c-.38-.38-.84-.57-1.38-.57h-4.34c-.53,0-.99,.19-1.37,.57-.38,.38-.57,.84-.57,1.38s.19,1.01,.57,1.39c.38,.38,.84,.57,1.37,.57h4.33Zm.02-.82c.32,0,.58-.11,.8-.33,.22-.22,.33-.49,.33-.8s-.11-.58-.33-.8-.49-.33-.8-.33-.58,.11-.8,.33-.33,.49-.33,.8,.11,.58,.33,.8,.49,.33,.8,.33Zm-2.18-1.13h0Z"/><path class="i" d="M3.42,24.68l.19-1.32h-.68s-.06-.02-.08-.05-.01-.06,0-.09l1.14-1.92h.19l-.19,1.32h.67s.05,.02,.07,.05,.02,.06,0,.09l-1.14,1.92h-.19Z"/><g><rect class="f" x="3.71" y="12.14" width="1.49" height=".25" transform="translate(16.72 7.81) rotate(90)"/><rect class="f" x="2.46" y="12.15" width="2.97" height=".29" transform="translate(16.24 8.35) rotate(90)"/><rect class="f" x="1.34" y="12.12" width="4.1" height=".35" transform="translate(15.69 8.9) rotate(90)"/><rect class="f" x="2.36" y="11.4" width=".34" height="1.72" transform="translate(14.8 9.73) rotate(90)"/></g><path class="i" d="M0,23.05l1.92-1.22v2.44l-1.92-1.22Z"/><path class="i" d="M0,12.23l1.92-1.22v2.44l-1.92-1.22Z"/><path class="f" d="M19.61,14.3v-2.66l-.69,.29-.14-.72,1.04-.39h.67v3.49h-.89Z"/></g><g><path class="i" d="M90.27,43.52l-.91,.91c-.57-.57-.99-1.16-1.28-1.78-.29-.62-.43-1.29-.43-2.01s.14-1.39,.43-2.01c.29-.62,.71-1.21,1.27-1.78l.92,.91c-.48,.49-.82,.97-1.02,1.44s-.3,.95-.3,1.44,.1,.96,.3,1.43,.54,.95,1.02,1.44Zm-2.13,2.12l-.91,.92c-.77-.76-1.4-1.64-1.88-2.66-.48-1.01-.72-2.1-.72-3.26,0-1.16,.24-2.24,.72-3.26s1.1-1.9,1.87-2.66l.92,.92c-.66,.71-1.2,1.48-1.6,2.31-.4,.83-.6,1.72-.6,2.69,0,.97,.2,1.86,.6,2.69,.4,.83,.93,1.59,1.6,2.31Zm4.99-4.99l-1.75-1.74c-.22,.22-.39,.49-.52,.78s-.2,.62-.2,.95c0,.34,.07,.65,.2,.95s.31,.56,.52,.77l1.75-1.72Z"/><path class="i" d="M96.41,31.26h-3.37l1.98,1.98-.51,.51-2.35-2.35-2.35,2.35-.51-.51,1.97-1.98h-3.36v-.24l2.44-2.44,1.81,1.81,1.81-1.81,2.44,2.44v.24Zm-5.14-.73l-.92-.93-.9,.93h1.82Zm3.58,0l-.89-.93-.93,.93h1.82Z"/><rect class="i" x="80.59" y="35.67" width="19.5" height=".49" transform="translate(128.82 125.19) rotate(-135)"/></g><path class="i" d="M96.78,39.02v-4.31l3.39,2.16-3.39,2.16Z"/><g><g><rect class="f" x="49.83" y="30.32" width="6.3" height="5.81"/><polygon class="e" points="49.8 37.59 56.61 37.59 63.88 44.85 54.19 44.85 49.8 37.59"/><rect class="f" x="41.58" y="30.32" width="6.3" height="5.81"/><polygon class="e" points="47.91 37.59 41.1 37.59 33.83 44.85 43.52 44.85 47.91 37.59"/></g><path class="e" d="M54.79,75c-.36,.69-.82,1.37-1.36,1.94-.82,.86-1.83,1.47-2.94,1.47h-2.54c-.57,0-1.06,0-1.61-.25,2.48-.02,3.71-2.98,4.13-5.02,.02-.09,.1-.15,.2-.15h4.63c.1,0,.18,.09,.18,.19v.04c-.05,.18-.1,.37-.17,.56,.93-1,1.65-2.2,2.1-3.52-.26,.04-.55,.08-.89,.1h-.19v-6.47h.19c.33,.02,.64,.06,.93,.12-.43-1.32-1.14-2.52-2.04-3.53,.07,.24,.12,.48,.15,.69v.03c0,.1-.08,.18-.19,.18l-4.88-.12c-.08,0-.15-.05-.17-.13-.57-1.94-1.72-4.87-4.12-4.98,1.05-.3,3.05-.32,3.99-.32,1.4-.04,2.53,.56,3.38,1.41,.61,.61,1.08,1.35,1.42,2.09,1.43,1.28,2.5,2.95,3.05,4.84,.8,.26,1.3,.62,1.3,.62l.07,.05v.09c.07,.7,.1,1.4,.1,2.11,0,.71-.03,1.41-.09,2.11v.03l-.02,.03c-.05,.1-.2,.37-.65,.61-.19,.11-.44,.21-.77,.3-.59,1.91-1.71,3.59-3.2,4.86"/><path class="e" d="M52.9,63.79c-.05-.14-.35-.31-.73-.46-.37-.15-.82-.29-1.12-.34h-.12c.04-.19-.02-.31-.13-.39h-.02c-.1-.07-.24-.07-.38-.05-.16,.02-.29,.12-.42,.22h0c-.06,.05-.11,.09-.15,.11l.03-.1v-.04h.01c.03-.13-.04-.24-.15-.31h0l-.11-.05-.13-.02h0c-.1,0-.19,.05-.24,.16-.01,.02-.04,.06-.07,.15h0s-.06,.05-.13,.09l-.05,.03c.01-.06,.07-.16,.13-.28,.21-.4,.49-.93,.03-1.5-.06-.14-.19-.23-.37-.3-.2-.07-.45-.11-.67-.12h-.22v-.03l-.08-.11h0l-.05-.08h0c-.04-.07-.09-.15-.14-.21h0c-.06-.07-.13-.12-.22-.16-.08-.03-.16-.06-.23-.08-.07-.02-.07,0-.07,0,0-.06-.01-.12-.09-.21-.11-.13-.61-.46-.71-.47-.1-.01-.23,0-.34,.02-.15,.05-.1,.03-.24,.01-.05,0-.11,0-.2,0-.02,0-.05-.05-.08-.1-.07-.13-.15-.26-.34-.28h-.08c-.06,.04-.11,.08-.14,.13v.02s-.03,.1-.02,.15c0,.1-.1,.2-.2,.29,0-.16,0-.32-.01-.4h0v-.04h0l-.02-.08c-.04-.09-.1-.13-.19-.13-.05,0-.09,0-.15,.03-.08,.03-.19,.09-.29,.15-.27,.17-.4,.32-.55,.52-.06,.08-.13,.16-.2,.24l-.02,.03c-.17-.06-.34-.06-.51-.06h0c-.25,0-.51,.01-.66-.22h0l-.02-.09-.05-.11c1.63-1.28,3.63-2.09,6.04-2.1-.2-.32-.71-.67-1.31-.85-.48-.14-.65-.16-1.03,.15-.24,.19-.49,.44-.6,.62-3.24,.98-5.81,3.5-6.86,6.7-.03,.07-.06,.17-.08,.3-.57,.1-1.12,.28-1.57,.59-.08,.05-.09,.09-.1,.15-.04,.73-.07,1.47-.08,2.21,0,.74,.02,1.48,.08,2.21v.06l.04,.05s.06,.07,.11,.11c.46,.28,1.01,.46,1.58,.57,.17,.77,.54,1.6,.91,2.24,1.29,2.21,3.38,3.9,5.87,4.68,.16,.26,.41,.51,.71,.73,.54,.38,.8,.36,1.47,.14,.49-.16,.91-.51,1.26-.91-.11,0-.22,0-.32,0-3.56,0-6.68-1.89-8.42-4.71-.42-.68-.69-1.34-.9-2.07,.76,.1,1.54,.12,2.21,.14,.15,0,.3,0,.45,0v-6.3c-.2,0-.4-.01-.6-.02-.64,0-1.38-.02-2.11,.05,.17-.48,.43-1.18,.61-1.51,.52-1,1.19-1.9,2.01-2.66l.03,.06c.09,.11,.24,.25,.4,.35,.14,.1,.28,.18,.4,.21h.04c.15,.05,.19,.06,.38-.01,.09-.03,.22-.01,.31,.02l.04,.02v.07h0c0,.06,0,.14,0,.19,0,.18,.01,.37,.07,.52-.09,.09-.15,.23-.22,.38-.08,.18-.17,.37-.27,.38-.19,.02-.34,.1-.45,.24-.14,.17-.22,.42-.23,.7-.01,.26,.03,.56,.13,.85,.15,.46,.45,.89,.86,1.13,.06,.16,.15,.33,.25,.5,.15,.27,.31,.56,.31,.77,0,.48,.85,.73,1.25,.97h0c.28,.17,.32,.35,.37,.57,.03,.11,.05,.24,.11,.38,.08,.2,.15,.58,.19,.97,.05,.44,.07,.89,.05,1.14h0v.02h0c0,.12-.06,1.49,.69,3.95v.02h0s.02,.12,.02,.2h0c0,.07,0,.14,.01,.21h0c0,.07,.02,.16,.05,.23h0c.04,.09,.1,.16,.19,.17h.04v.02c.02,.1,.05,.19,.1,.26h0l.03,.06c.06,.07,.16,.2,.24,.24h0c.06,.04,.12,.05,.17,.05h.04l.05,.08c.04,.06,.07,.1,.1,.13h.01c.24,.19,.45,.04,.59-.14,.06-.07,.1-.15,.13-.19,.1-.09,.07-.2-.02-.31l-.05-.07-.09-.06h0c.09-.09,.15-.17,.27-.33l.1-.13c.04-.06,.04-.13,.01-.18h0c-.03-.05-.09-.11-.16-.18-.07-.07-.16-.16-.21-.22,.08-.06,.16-.16,.23-.27v-.02c.11-.17,.19-.38,.17-.46-.01-.08-.08-.13-.16-.14,0,0-.04-.04-.11-.09h.06c.19-.03,.39-.08,.43-.17,.03-.06,.03-.12,0-.17v-.03c-.03-.13-.07-.13,.06-.15,.06,0,.12-.01,.18-.02h0l.18-.02,.09-.05c.09-.07,.27-.23,.38-.36,.04-.05,.08-.11,.09-.16,.04-.1,.02-.2-.07-.26h0s-.1-.05-.18-.05h0l-.04-.05c-.05-.05-.11-.11-.15-.19l-.03-.05c.05,0,.11,.03,.17,.07,.23,.14,.34,.08,.4,.04,.2-.06,.39-.19,.53-.35h0c.14-.17,.23-.36,.24-.55,0-.08,.11-.24,.2-.37,.1-.15,.19-.29,.16-.4-.03-.09-.03-.3,0-.5,.02-.13,.05-.25,.09-.29h0c.13-.13,.48-.46,.62-.37,.23,.14,.42-.07,.57-.32,.05-.08,.09-.16,.13-.23h0c.03-.06,.05-.11,.06-.11l.02-.03c.19-.31,.16-1.62,.15-2.01,.31-.17,.57-.52,.72-.91,.17-.43,.21-.92,.06-1.32Zm-3.47,5.11c-.15,.15-.35,.24-.57,.24s-.43-.09-.57-.24c-.15-.15-.24-.35-.24-.57s.09-.43,.24-.57c.15-.15,.35-.24,.57-.24s.43,.09,.57,.24c.15,.15,.24,.35,.24,.57s-.09,.43-.24,.57Z"/><g><path class="e" d="M47.89,89.75c2.73,0,4.96,2.23,4.96,4.96s-2.23,4.96-4.96,4.96-4.96-2.23-4.96-4.96,2.23-4.96,4.96-4.96"/><path class="e" d="M53.71,89.75v4.97c0,3.19-2.6,5.8-5.8,5.8s-5.8-2.61-5.8-5.8v-4.97h-.83v4.97c0,3.65,2.98,6.63,6.63,6.63s6.63-2.98,6.63-6.63v-4.97h-.83Z"/><path class="e" d="M54.95,89.75c0,1.66,0,3.31,0,4.97,0,3.88-3.16,7.04-7.04,7.04s-7.04-3.17-7.04-7.04c0-1.65,0-3.32,0-4.97h-.83c0,1.66,0,3.31,0,4.97,0,4.33,3.53,7.87,7.87,7.87s7.87-3.54,7.87-7.87c0-1.59,0-3.38,0-4.97h-.83"/><path class="e" d="M56.19,89.75c0,1.66,0,3.31,0,4.97,0,4.56-3.72,8.29-8.28,8.29s-8.28-3.72-8.28-8.29v-4.97h-.83v4.97c0,5.02,4.09,9.11,9.11,9.11s9.11-4.09,9.11-9.11v-4.97h-.83"/><path class="e" d="M57.43,89.75c0,1.66,0,3.31,0,4.97,0,5.25-4.27,9.53-9.52,9.53s-9.53-4.28-9.53-9.53v-4.97h-.84v4.97c0,5.7,4.65,10.35,10.35,10.35s10.35-4.65,10.35-10.36v-4.97h-.83"/><path class="e" d="M58.67,89.75v4.97c0,5.93-4.83,10.77-10.76,10.77s-10.77-4.84-10.77-10.77v-4.97h-.84v4.97c0,6.39,5.21,11.6,11.6,11.6s11.6-5.21,11.6-11.6v-4.97h-.83Z"/></g><g><path d="M59.85,128.65c0,2.59-.89,4.97-2.39,6.85-.19-.6-.69-1.05-1.31-1.19,1.21-1.56,1.93-3.52,1.93-5.65,0-2.94-1.37-5.55-3.51-7.24l-5.4,15.23c-.04,.11-.19,.11-.23,0l-5.75-15.28c-2.17,1.69-3.57,4.33-3.57,7.29,0,5.1,4.13,9.23,9.23,9.23,1.9,0,3.67-.58,5.14-1.56,.1,.63,.52,1.15,1.1,1.38-1.77,1.23-3.92,1.94-6.24,1.94-6.07,0-10.99-4.92-10.99-10.99,0-3.73,1.85-7.02,4.69-9.01l-.67-1.78c1.11-.23,1.84,.31,2.28,.85,.35,.44,.51,.87,.51,.87l.26,.72,4.07,11.43s.08,.04,.09,0l1.74-5.84h-2.51c-.32,0-.61-.21-.72-.51l-.57-1.61,4.37-.02s1.03-3.09,1.04-3.13c.05-.14,.1-.27,.15-.4,.27-.67,.61-1.16,.96-1.5,1.07-1.07,2.28-.84,2.28-.84l-.64,1.8c2.82,1.99,4.66,5.27,4.66,8.98Z"/><path d="M56.86,136.05c0,.61-.49,1.1-1.1,1.1s-1.1-.49-1.1-1.1,.49-1.1,1.1-1.1c.61,0,1.1,.49,1.1,1.1Z"/></g></g><g><path class="i" d="M17.68,45.4c-.77,0-1.42-.27-1.96-.81-.54-.54-.81-1.2-.81-1.97s.27-1.43,.81-1.97c.54-.54,1.19-.81,1.96-.81h4.34c.77,0,1.42,.27,1.96,.81,.54,.54,.81,1.2,.81,1.97,0,.78-.27,1.43-.81,1.97-.54,.54-1.19,.81-1.96,.81h-4.34Zm4.33-.83c.55,0,1.01-.19,1.39-.57,.38-.38,.57-.84,.57-1.38s-.19-1-.57-1.38c-.38-.38-.84-.57-1.38-.57h-4.34c-.53,0-.99,.19-1.37,.57-.38,.38-.57,.84-.57,1.38s.19,1.01,.57,1.39c.38,.38,.84,.57,1.37,.57h4.33Zm.02-.82c.32,0,.58-.11,.8-.33,.22-.22,.33-.49,.33-.8s-.11-.58-.33-.8-.49-.33-.8-.33-.58,.11-.8,.33-.33,.49-.33,.8,.11,.58,.33,.8,.49,.33,.8,.33Zm-2.18-1.13h0Z"/><path class="i" d="M3.42,49.65l.19-1.32h-.68s-.06-.02-.08-.05-.01-.06,0-.09l1.14-1.92h.19l-.19,1.32h.67s.05,.02,.07,.05,.02,.06,0,.09l-1.14,1.92h-.19Z"/><g><rect class="f" x="3.71" y="37.11" width="1.49" height=".25" transform="translate(41.69 32.78) rotate(90)"/><rect class="f" x="2.46" y="37.12" width="2.97" height=".29" transform="translate(41.21 33.32) rotate(90)"/><rect class="f" x="1.34" y="37.09" width="4.1" height=".35" transform="translate(40.66 33.87) rotate(90)"/><rect class="f" x="2.36" y="36.37" width=".34" height="1.72" transform="translate(39.77 34.7) rotate(90)"/></g><path class="i" d="M0,48.02l1.92-1.22v2.44l-1.92-1.22Z"/><path class="i" d="M0,37.2l1.92-1.22v2.44l-1.92-1.22Z"/><path class="f" d="M18.99,39.32v-.71l.67-.54c.16-.13,.29-.24,.41-.34s.21-.19,.29-.27c.07-.08,.13-.16,.16-.23s.05-.15,.05-.23c0-.15-.05-.27-.15-.37-.1-.09-.25-.14-.45-.14-.15,0-.29,.03-.44,.08-.15,.05-.27,.11-.37,.17l-.12-.73c.16-.07,.33-.13,.52-.17,.19-.04,.39-.07,.61-.07,.44,0,.78,.1,1.01,.29,.23,.2,.34,.46,.34,.78,0,.25-.07,.48-.22,.69-.15,.21-.36,.42-.63,.64l-.5,.39h0c.19,0,.4-.01,.66-.02,.25,0,.53,0,.83,0v.77h-2.67Z"/></g><g><path class="i" d="M17.68,71.27c-.77,0-1.42-.27-1.96-.81-.54-.54-.81-1.2-.81-1.97s.27-1.43,.81-1.97c.54-.54,1.19-.81,1.96-.81h4.34c.77,0,1.42,.27,1.96,.81,.54,.54,.81,1.2,.81,1.97,0,.78-.27,1.43-.81,1.97-.54,.54-1.19,.81-1.96,.81h-4.34Zm4.33-.83c.55,0,1.01-.19,1.39-.57,.38-.38,.57-.84,.57-1.38s-.19-1-.57-1.38c-.38-.38-.84-.57-1.38-.57h-4.34c-.53,0-.99,.19-1.37,.57-.38,.38-.57,.84-.57,1.38s.19,1.01,.57,1.39c.38,.38,.84,.57,1.37,.57h4.33Zm.02-.82c.32,0,.58-.11,.8-.33,.22-.22,.33-.49,.33-.8s-.11-.58-.33-.8-.49-.33-.8-.33-.58,.11-.8,.33-.33,.49-.33,.8,.11,.58,.33,.8,.49,.33,.8,.33Zm-2.18-1.13h0Z"/><path class="i" d="M3.42,74.85l.19-1.32h-.68s-.06-.02-.08-.05-.01-.06,0-.09l1.14-1.92h.19l-.19,1.32h.67s.05,.02,.07,.05,.02,.06,0,.09l-1.14,1.92h-.19Z"/><g><rect class="f" x="3.71" y="62.31" width="1.49" height=".25" transform="translate(66.89 57.98) rotate(90)"/><rect class="f" x="2.46" y="62.32" width="2.97" height=".29" transform="translate(66.41 58.52) rotate(90)"/><rect class="f" x="1.34" y="62.29" width="4.1" height=".35" transform="translate(65.86 59.07) rotate(90)"/><rect class="f" x="2.36" y="61.57" width=".34" height="1.72" transform="translate(64.97 59.9) rotate(90)"/></g><path class="i" d="M0,73.22l1.92-1.22v2.44l-1.92-1.22Z"/><path class="i" d="M0,62.4l1.92-1.22v2.44l-1.92-1.22Z"/><path class="f" d="M21.61,63.76c0,.21-.04,.41-.13,.6-.08,.19-.21,.36-.37,.5-.16,.14-.36,.26-.6,.34-.24,.08-.51,.13-.82,.13-.12,0-.23,0-.35-.02-.11-.02-.22-.04-.32-.06l.07-.76c.08,.03,.18,.05,.29,.07,.11,.02,.22,.03,.34,.03,.31,0,.54-.07,.71-.21,.16-.14,.24-.32,.24-.53,0-.14-.03-.26-.1-.35-.07-.1-.17-.17-.29-.22-.13-.05-.28-.08-.45-.1-.17-.01-.37,0-.57,.01v-.69c.45,0,.79-.06,1.01-.18,.22-.13,.33-.31,.33-.54,0-.17-.06-.3-.17-.4-.11-.1-.27-.15-.48-.15-.13,0-.26,.02-.39,.05s-.26,.09-.37,.15l-.08-.73c.33-.13,.67-.2,1.02-.2,.23,0,.44,.03,.61,.09,.17,.06,.32,.14,.43,.24,.12,.1,.2,.22,.26,.35,.06,.13,.08,.28,.08,.42,0,.24-.07,.46-.21,.64-.14,.18-.32,.33-.54,.42h0c.27,.07,.48,.19,.63,.39s.22,.43,.22,.69Z"/></g><g><path class="i" d="M17.68,95.04c-.77,0-1.42-.27-1.96-.81-.54-.54-.81-1.2-.81-1.97s.27-1.43,.81-1.97c.54-.54,1.19-.81,1.96-.81h4.34c.77,0,1.42,.27,1.96,.81,.54,.54,.81,1.2,.81,1.97,0,.78-.27,1.43-.81,1.97-.54,.54-1.19,.81-1.96,.81h-4.34Zm4.33-.83c.55,0,1.01-.19,1.39-.57,.38-.38,.57-.84,.57-1.38s-.19-1-.57-1.38c-.38-.38-.84-.57-1.38-.57h-4.34c-.53,0-.99,.19-1.37,.57-.38,.38-.57,.84-.57,1.38s.19,1.01,.57,1.39c.38,.38,.84,.57,1.37,.57h4.33Zm.02-.82c.32,0,.58-.11,.8-.33,.22-.22,.33-.49,.33-.8s-.11-.58-.33-.8-.49-.33-.8-.33-.58,.11-.8,.33-.33,.49-.33,.8,.11,.58,.33,.8,.49,.33,.8,.33Zm-2.18-1.13h0Z"/><path class="i" d="M3.42,99.16l.19-1.32h-.68s-.06-.02-.08-.05-.01-.06,0-.09l1.14-1.92h.19l-.19,1.32h.67s.05,.02,.07,.05,.02,.06,0,.09l-1.14,1.92h-.19Z"/><g><rect class="f" x="3.71" y="86.62" width="1.49" height=".25" transform="translate(91.2 82.29) rotate(90)"/><rect class="f" x="2.46" y="86.63" width="2.97" height=".29" transform="translate(90.72 82.83) rotate(90)"/><rect class="f" x="1.34" y="86.6" width="4.1" height=".35" transform="translate(90.16 83.38) rotate(90)"/><rect class="f" x="2.36" y="85.88" width=".34" height="1.72" transform="translate(89.28 84.21) rotate(90)"/></g><path class="i" d="M0,97.53l1.92-1.22v2.44l-1.92-1.22Z"/><path class="i" d="M0,86.71l1.92-1.22v2.44l-1.92-1.22Z"/><path class="f" d="M21.64,87.95v1.24h-.86v-1.24h-1.84l-.14-.71,1.74-2.79h1.11v2.72h.72v.78h-.72Zm-.84-2.67h0l-1.16,1.9c.07,0,.16,0,.27-.01,.11,0,.22,0,.34,0h.55v-1.89Z"/></g><g><path d="M46.93,159.89l-.07,.08s-.01,.03,0,.04,.02,.02,.04,.02,.03,0,.04-.02l.03-.06h0l.08-.13h0l.08-.13h0l.09-.13h0l.23-.31,.29-.38h0l.91-1.44h0l.89-1.43h0l.85-1.42h0l.21-.39h0l.47-1.13h0l.03-.12h0l.03-.12h0l.02-.12h0l.04-.32h0v-.45c.02-.07-.03-.13-.1-.15-.07-.02-.14,.02-.17,.09l-.03,.08v.02l-.05,.16v.02l-.21,1.37h0l-.13,2.1h0v.7h0l.11,1.63h0l.37,2.3h0l.18,.95h0l.21,.96h0l.27,.94h0l.12,.25s.01,.02,.03,.02c.01,0,.02,0,.03-.01,0,0,0-.02,0-.03l-.02-.03h0l-.02-.04s-.02-.02-.03-.01c-.01,0-.02,.02-.01,.03l.02,.04h0v.03s0,.02,.02,.03c0,0,.02,0,.03,0,0,0,.01-.02,.01-.03l-.06-.26h0l-.17-.95h0l-.14-.96h0l-.17-.95h0l-.37-2.29h0l-.1-1.6h0v-.69h0l.13-2.08h0l.21-1.36v.02l.04-.16v.02l.03-.08c.02-.06,.01-.12-.03-.16-.04-.04-.1-.06-.16-.04-.06,.02-.09,.07-.1,.13v.44h-.01l-.04,.3h0l-.02,.1h0l-.03,.1h0l-.03,.1h0l-.46,1.11h0l-.2,.38h0l-.84,1.41-.86,1.44h0l-.86,1.47h0l-.27,.39h0l-.22,.32h0l-.08,.14h0l-.07,.14h0l-.06,.15h0v.07s0,.04,.01,.05c.02,0,.04,0,.05-.02l.04-.1s0-.02,0-.03c0,0-.02,0-.03,0Z"/><path d="M39.45,154.17h0v-.02h0v-.02h0v-.02h0v-.02h0v-.02h0v-.02h0v-.02h.02s.02-.05,.01-.07c-.01-.02-.03-.03-.05-.02-.02,0-.03,.03-.02,.05l.08,.2h0l.29,.88h0l.23,.89h0l.22,1.09h0l.12,.73h0l.2,1.25v.02l.02,.07s.02,.04,.04,.06h.02v.02h.03v.02h.16v-.02h.02v-.02h.01v-.02h.01v-.02h0v-.02h0v-.02h0v-.02h0v-.02h0v-.02h0v.05l.03-.14h0v-.08h.01l.16-.53h0l.19-.53h0l.21-.52h0l.58-1.18h0l.13-.24h0l1.04-1.88h0l1.14-1.82h0l.11-.15h0l.09-.12h0l.08-.13h0l.18-.32s.02-.1,0-.15c-.03-.04-.08-.07-.13-.06-.05,0-.1,.04-.11,.09l-.05,.15h0l-.07,.08h0l-.07,.09s0,.02,0,.03c0,0,.02,0,.03,0l.07-.09h0l.07-.08h.14c.07,.02,.13-.03,.14-.1s-.02-.13-.09-.16c-.06-.02-.14,0-.17,.06l-.18,.31h0l-.09,.11h0l-.09,.12h0l-.11,.16h0l-1.14,1.83h0l-1.04,1.89h0l-.13,.25h0l-.58,1.2h0l-.21,.54h0l-.19,.54h0l-.16,.55h0v.09h-.01l-.03,.13s0,.03,0,.05h0v-.02h0v-.02h0v-.02h0v-.02h0v-.02h.01v-.02h.02v-.02h.02v-.02h.15v.02h.02l.04,.07-.02-.07v.02l-.19-1.25h0l-.12-.74h0l-.23-1.1h0l-.28-.9h0l-.39-.86h0l-.13-.19s-.02-.02-.03-.02c-.01,0-.02,0-.03,0h-.01v.02h-.01v.02h0v.02h0v.02h0v.02h0v.02h0v.02h0v.02h0v.02h0v.02h0s0,.03,0,.03c0,0,.02,0,.03,0Z"/><path d="M41.92,158.59l-.03,.02v.04l.06,.13h0l.02,.04h0l.02,.04h0l.02,.04h0l.06,.09h.01v.02h.01v.02h.02v.02h.03v.02h.04v.02h.15v-.02h.02v-.02h.03v-.02h.03v-.02h.03v-.02h.02v-.03h.02v-.02h.01v-.03h.01l.02-.04h0l.1-.24h0v-.05h.01v-.05h.01v-.05h0v-.05h0v-.05h0v-.05h0v-.13h0l-.03-.27s-.03-.07-.07-.08c-.04,0-.08,.01-.09,.04h0v-.02h.02v-.02h.1v.02h0s-.06-.04-.09-.03c-.03,0-.06,.04-.07,.07l-.02,.08h0l-.02,.19h0v.06h0v.05h0v.05h0v.05h0v.05h.01v.05h.01v.05h.02l.04,.12h0v.02h.01v.03h.01v.03h.01v.03h.01v.03h.02v.02h.02l.02,.02h0l.02,.02h0l.02,.02h0l.02,.02h0l.02,.02h0l.02,.02h0l.02,.02h0l.02,.02h0l.02,.02h0l.02,.02h0l.05,.03h.19v-.02h.03v-.02h.02v-.02h.02v-.02h.01v-.02h.01v-.02h0v-.02h0v-.02h0v-.02h0v-.02h0l.02-.04h0l.02-.06h0l.02-.05h0l.03-.12h0v-.03h0l.04-.14h0l.1-.39h0v-.04h.01l.02-.04h0l.02-.04h0l.02-.04h0l.02-.04h0l.02-.04h0l.05-.07h0v-.02h.07s.11,.04,.15,0c.04-.04,.04-.11,0-.15-.04-.04-.1-.05-.15-.02l-.21,.15h-.01l-.03,.04h0l-.03,.03h0l-.03,.03h0l-.03,.04h0l-.05,.08h0l-.02,.04h0l-.02,.04h0l-.02,.04h0l-.02,.04h0l-.02,.05h0l-.02,.05h0l-.03,.14h0v.03h0v.03h0v.03h0v.03h0v.03h0v.03h0v.03h0v.03h0v.03h0v.03h0v.03h0v.03h.01l.02,.07h0v.03h.01v.02h.01v.02h.01v.02h.01v.02h.02v.02h.02v.02h.02v.02h.02l.02,.02h0l.02,.02h0l.04,.04h.02v.02h.04l.02,.02h.02l.02,.02h.04v.02h.09l.02,.02h.14v-.02h.04l.02-.02h.03l.02-.03h.03v-.02h.03v-.02h.03v-.02l.03-.02h0l.02-.02h0l.02-.02h0l.04-.05h0l.05-.05h0l.04-.06h0l.04-.06h0l.04-.06h0l.08-.14h0l.1-.23h0l.11-.29h0l.1-.29h0l.09-.29h0l.07-.3h0l.1-.66h0l.03-.35h0v-.91h0v-.26h-.01v-.18h0v-.18h-.01l-.02-.18h0l-.09-.51h0v-.02h0v-.02h0v-.02h0v-.02h0v-.02h0v-.02h-.01v-.02h-.01v-.02h-.01v-.02h-.02l-.04-.04h-.03v-.02h-.14v.02h-.02v.02h-.02v.02h-.02v.02l-.02,.02h0v.02h-.02v.02h-.02v.03h-.02v.03h-.01v.03h-.02l-.02,.07h0l-.04,.12h0l-.03,.12h0l-.03,.12h0l-.02,.12h0l-.02,.12h0l-.02,.25h0v.86h0v.06h0l.02,.53h0l.13,1.14h0l.04,.21h0l.05,.21h0l.06,.2h0l.06,.2h0l.07,.2h0l.08,.19h0l.2,.39,.02,.02,.02,.03h0l.16,.2h.01v.02h.02v.03h.02v.02h.02v.02h.03v.02h.03v.02h.03v.02h.03l.04,.02h.11v-.02h.03v-.02h.02v-.02h.02v-.02h.02v-.02h.01v-.02h.01v-.02h0v-.02h0v-.02h0v-.02h0v-.02h0v-.02h0l.04-.2h0l.02-.15h0l.08-.53h0v-.05h.01v-.05h.01l.02-.05h0l.02-.05h0l.02-.05h0l.02-.05h0l.03-.05h0l.07-.11v.02l.05-.06s.03-.07,0-.11c-.02-.03-.07-.05-.1-.03l-.06,.03h-.02l-.02,.02h-.03l-.02,.03h0l-.02,.02h0l-.02,.02h0l-.02,.02h0l-.02,.02h0l-.02,.02h0l-.02,.02h0l-.02,.02h0l-.02,.02h0l-.02,.02h0l-.02,.02h0l-.02,.03h0l-.02,.03h0v.03h-.02v.03h-.01v.03h-.01v.03h-.01v.03h0v.03h0v.03h0v.03h0v.03h0v.03h0v.07h0v.03h0v.03h0v.03h0v.03h0v.03h0v.03h0v.03h0v.03h.01v.03h.01v.03h.01v.03h.01v.03h.01v.03h.02l.02,.03h0l.02,.03h0l.02,.02h0l.02,.02h0l.04,.05h.01v.02h.03v.02h.03v.02h.03v.02h.03v.02h.06l.04,.02h.15v-.02h.04v-.02h.03v-.02h.03v-.02h.03v-.02h.03v-.02l.03-.02h0l.02-.02h0l.02-.03h0l.02-.03h0l.02-.03h0l.02-.03h0l.02-.03h0v-.03h.02v-.03h.02v-.03h.01v-.03h.01v-.03h.01v-.03h0v-.03h0v-.03h0v-.25l-.05-.17h0v-.03h0v-.02h0v-.02h0v-.02h-.01v-.02h-.01v-.02h-.01v-.02h-.01v-.02h-.01v-.02h-.03v-.02h-.02v-.03h-.03v-.02h-.02v-.02h-.02l-.03-.02h-.04v-.02h-.14v.02h-.02v.02h-.02v.02h-.01v.02h-.01v.02h-.01v.02h0v.02h0v.02h0v.02h0v.02h0v.02h0v.02h0v.02h0v.03h0v.03h0v.03h0v.03h0v.03h0v.03h0v.03h0v.05l.02,.02h0v.02h.01v.02h.01v.02h.01v.02h.01v.02h.01v.02h.01v.02h.02v.03h.03v.02h.02v.02h.03v.02h.04v.02h.05v.02h.06l.02,.02h.22l.02-.02h.05l.02-.02h.02l.02-.02h.02l.02-.02h.02v-.02h.03v-.02h.02v-.03h.02v-.02h.02v-.02h.01v-.02h.01v-.02h.01v-.02h.01v-.02h.01v-.02h.01v-.02h.01v-.04h.02v-.02h0v-.02h0v-.02h0v-.02h0v-.02h0v-.02h0v-.02h0v-.02h0v-.02h0v-.02h0v-.02h0v-.02h0v-.02h0v-.02h0v-.02h-.01v-.02h-.01l-.02-.03h-.01l-.02-.02h0v.02h0l-.03,.03h0l.12-.06h0l.05-.02h0l.08-.04h0l.21-.09h.04v-.02h.08v.02h0v.02h0l-.06,.14v-.02l-.02,.04v.02l-.12,.26h0l-.02,.09h0l-.02,.09v.02l-.03,.24v.06h0v.05h0v.05h0v.05h0v.05h0v.05h.01v.05h.01v.05h.02l.02,.05h0l.02,.05h0l.02,.05h0l.02,.05h0l.06,.11h0l.03,.04h0l.03,.05h0l.03,.04h0l.03,.04h0l.03,.04h0l.03,.04h0l.04,.04h0l.04,.04h0l.04,.03h0l.04,.03h0l.04,.03h0l.04,.03h0l.09,.05h.02l.03,.02h.05l.03,.02h.08v.02h.28l.04-.02h0l.04-.02h0l.04-.02h0l.04-.02h0l.11-.05,.03-.02,.15-.12h0l.14-.14,.03-.03h0l.03-.03h0l.03-.03h0l.03-.03h0l.02-.03h0l.02-.03h0l.02-.03h0l.02-.04h0l.02-.04h0l.02-.04h0v-.04h.01v-.04h.01l.03-.11h0l.02-.12s0-.02-.02-.03c-.01,0-.02,0-.02,.02l-.02,.12h0l-.03,.11h0l-.02,.03-.02,.04h0l-.02,.03h0l-.02,.03h0l-.02,.03h0l-.02,.03h0l-.02,.03h0l-.03,.03h0l-.03,.03h0l-.03,.03h0l-.03,.03h0l-.03,.02h0l-.17,.09h.02l-.18,.04h0l-.12,.04h-.38l-.03-.02h-.02l-.03-.02h0l-.09-.04h0l-.04-.02h0l-.04-.02h0l-.04-.02h0l-.04-.03h0l-.04-.03h0l-.04-.03h0l-.03-.03h0l-.03-.03h0l-.03-.03h0l-.03-.03h0l-.03-.03h0l-.03-.04h0l-.06-.1h0l-.02-.03h0l-.02-.04h0l-.02-.04h0l-.02-.04h0v-.04h-.01v-.04h0v-.04h0v-.04h0v-.04h0v-.04h0v-.04h0v-.04h0l.02-.23h0v-.07h.01l.02-.07h0l.05-.28h0v-.06h0l.03-.15h0v-.02h0v-.02h0v-.02h0v-.02h0v-.02h0v-.02h0v-.02h0v-.02h-.01v-.02h-.01v-.02h-.02v-.02h-.02v-.02h-.02l-.03-.02h-.2v.02h-.01l-.21,.09-.08,.03h-.04l-.12,.05h-.07v.02h-.03v.02h-.02v.02h-.02v.02s-.05,.08-.04,.12v.02h0v.02h0v.02h0v.02h0v.02h0v.02h0v.02h.01v.02h.01v.02h.02v.02h.02v.02h.02v.02h.04v.02h0v.02h0v0h0v.02h-.01v.02h-.01v.02h-.01v.02h-.02v.02h-.02v.02h-.02v.02h-.03l-.02,.02h-.03l-.02,.02h-.22l-.02-.02h-.02v-.02h-.02v-.02h-.02v-.02h-.02v-.02h-.02v-.02h-.01v-.02h0v-.03h-.02v-.03h0v-.02h0v-.02h0v-.02h0v-.02h0v-.02h0v-.04h-.01l.03,.03h.02v.02h.02v.02h.02v.02h.02v.02h.02v.02h.01v.02h.01v.02h0l.05,.16v.16h0v.02h0v.03h0v.03h0v.03h0v.02h0v.02h0v.02h-.01v.02h-.01l-.02,.02h0l-.02,.02h0l-.02,.02h0l-.02,.02h0l-.02,.02h0l-.02,.02h0l-.02,.02h0v.02h-.02v.02h-.05v.02h-.13v-.02h-.03v-.02h-.03v-.02h-.03l-.04-.05h0l-.02-.02h0l-.02-.02h0l-.02-.02h0l-.02-.02h0v-.02h-.01v-.02h-.01v-.02h0v-.02h0v-.02h0v-.02h0v-.02h0v-.02h0v-.02h0v-.02h0v-.02h0v-.02h0v-.02h0v-.06h0v-.02h0v-.02h0v-.02h0v-.02h0v-.02h0v-.02h0v-.02h0v-.02h0v-.02h.01v-.02h.01v-.02h.01l.02-.02h0l.02-.02h0l.02-.02h0l.02-.02h0l.02-.02h0l.02-.02h0l.02-.02h.02l.02-.03h.02l.02-.02h.02l.02-.02h.02l.03-.02h0l.06-.03s.05-.04,.05-.08c0-.03-.02-.06-.05-.08-.03-.01-.07,0-.09,.01l-.06,.06-.02,.02-.07,.12h0l-.03,.06h0l-.02,.06h0l-.02,.06h0l-.02,.06h0l-.02,.06h0l-.02,.06h0v.06h-.01l-.08,.55h0l-.02,.14h0l-.04,.21h0v.02h0v.02h-.02v.02h0v-.02h-.03v-.02h-.02v-.02h-.01v-.02h-.01v-.02h-.01l-.12-.23h0v-.02h-.02l-.19-.39h0l-.08-.18h0l-.07-.19h0l-.06-.19h0l-.05-.19h0l-.04-.19h0l-.04-.2h0l-.13-1.12h0l-.03-.51h0v-.05h0v-.84h0l.02-.23h0l.02-.11h0l.02-.11h0l.03-.11h0l.03-.11h0l.04-.11h0l.02-.05h0v-.02h.02v-.03h.02v-.03h0v.02h-.03v.02h-.09l-.04-.03h0v.02h0l.09,.5h0l.02,.17h0v.17h.01v.17h0v.26h.01v.89h0l-.03,.33h0l-.09,.65h0l-.06,.29h0l-.07,.29h0l-.09,.28h0l-.1,.28h0l-.1,.21h0l-.08,.12h0l-.04,.05h0l-.04,.05h0l-.04,.05h0l-.05,.05h0l-.04,.04h0l-.02,.02h-.01l-.02,.02h-.01l-.02,.02h-.01l-.02,.02h-.03l-.04,.02h-.11l-.02-.02h-.03v-.02h-.03l-.04-.04h0l-.02-.02h0v-.02h-.02v-.03h-.02v-.03h-.02v-.03h0l-.02-.05h0v-.02h0v-.02h0v-.02h0v-.02h0v-.02h0v-.02h0v-.02h0v-.02h0v-.02h0v-.02h0v-.02h0v-.02h0l.03-.12h0l.02-.03h0l.02-.04h0l.02-.04h0l.02-.03h0l.02-.03h0l.02-.03h0l.05-.06h0l.03-.03h0l.03-.03h0l.03-.03h0l.03-.03h-.01l.21-.15s.05-.06,.05-.09c0-.04-.02-.07-.05-.09h-.02v-.02h-.04v-.02h-.05v-.02h-.17v.02h-.03v.02h-.03v.02h-.02v.02h-.02v.02h-.01v.02h-.01l-.05,.1h0l-.02,.05h0l-.02,.05h0l-.02,.05h0l-.02,.05h0l-.02,.05h0v.05h-.02l-.09,.4h0l-.02,.15h0v.03h0l-.02,.11h0v.05h-.01l-.02,.05h0l-.02,.05h0v.02h0v.02h-.02v.02h-.07l-.02-.02h-.01l-.02-.02h-.01l-.02-.03h-.01l-.02-.03h0l-.02-.02h0l-.02-.02h0l-.02-.02h0v-.02h-.01v-.02h-.01v-.02h-.01v-.02h0v-.02h0v-.02h0l-.04-.11h0v-.04h-.01v-.04h-.01v-.04h0v-.04h0v-.04h0v-.04h0v-.04h0l.02-.17h0l.02-.07s-.02-.09-.06-.11c-.04-.02-.09,0-.11,.04-.02,.04-.01,.09,.02,.12h.02v.02h.1v-.02h.02v-.02h.01v-.02h0v-.02h0v-.02h0s-.02-.08-.05-.09c-.03-.01-.07,0-.09,.01s-.04,.06-.03,.09l.06,.26h0v.11h0v.04h0v.04h0v.04h0v.04h0v.04h0v.04h0l-.09,.24h0l-.02,.03h0v.02h-.01v.02h-.01v.02h-.02v.02h-.02v.02h-.03v.02h-.13v-.02h-.02v-.02h0l-.07-.09h0l-.02-.03h0l-.02-.03h0l-.02-.03h0l-.08-.12v.03l.02-.03s0-.02,0-.03c0,0-.02,0-.03,0Z"/><path d="M49.08,156.48l.04-.05h0v-.06h0v-.05h0v-.05h0v-.05h0v-.05h0v-.05h0v-.05h0l-.03-.09h0v-.02h0v-.02h-.01v-.02h0v-.03h-.02v-.02h-.01v-.03h-.02v-.02h-.01v-.02h-.03v-.02h-.03v-.02h-.03v-.02h-.03v-.02h-.05v-.02h-.09l-.04-.02h-.13l-.02,.02h-.05v.02h-.03l-.02,.02h-.03l-.02,.02h-.03l-.02,.03h-.02v.02h-.02v.02h-.02v.02h-.02v.02l-.02,.02h0l-.03,.05h0l-.02,.03h0l-.02,.03h0l-.02,.03h0v.03h-.02v.03h-.02v.03h-.01v.03h-.01v.03h-.01v.03h0v.03h0v.03h0v.03h0v.1h0v.16h0v.16h.02l.02,.16h0l.03,.16h0l.03,.16h0l.04,.15h0l.05,.15h0l.06,.15h0l.06,.15h0l.07,.15h0l.07,.14h0l.08,.14h0l.22,.33h0l.1,.13h0l.11,.12h0l.11,.12h0l.12,.12h0l.12,.11h0l.12,.1h0l.33,.23h0l.03,.02h0l.03,.02h0l.04,.02h0l.04,.02h0l.04,.02h.04v.02h.04l.04,.02h.05l.04,.02h.35l.04-.02h.05l.04-.03h0l.04-.02h0l.04-.02h0l.04-.02h0l.04-.02h0l.04-.02h0l.09-.06h0l.1-.08h0l.1-.09h0l.09-.09h0l.09-.1h0l.09-.1h0l.08-.1h0l.08-.11h0l.07-.11h0l.18-.35h0l.09-.19h0l.08-.19h0l.14-.45h0l.12-.56h0l.05-.39h0l.03-.39h0v-.83h0v-.68h-.01l-.05-.44h0v-.02h0v-.02h0v-.02h0v-.02h0v-.02h0v-.02h0v-.02h0v-.02h-.02v-.02h-.02v-.02h-.02v-.02h-.03v-.02h-.03v-.02h-.02s-.03-.02-.05-.02h-.13v.02h-.04v.02h-.03v.02h-.02l-.02,.02h0l-.03,.03h0l-.03,.03h0l-.03,.03h0l-.03,.03h0l-.03,.03h0l-.02,.03h0l-.06,.09v.02l-.05,.08h0l-.03,.09h0l-.03,.09h0l-.03,.09h0l-.02,.09h0l-.02,.09h0v.1h-.01l-.02,.19h0l-.04,.32h0l-.12,1.07h0v.34h0l.05,.94h0l.03,.29h0l.08,.51v.02l.11,.38h0v.03h0v.05h.01v.05h.01l.04,.12h0v.02h0v.02h0v.02h.01v.02h.01v.02h.01v.02h.01v.02h.01v.02h.02v.02h.02v.02h.02v.02h.02v.02h.02l.03,.03s.03,.02,.05,.03h.23v-.02h.03v-.02h.03v-.02h.02v-.02h.02v-.02h.01l.02-.03h.02v-.02l.03-.03h0l.03-.03h0l.02-.03h0l.06-.09h0l.07-.1h.01v-.02l.02-.02h0l.02-.03h0v-.03h.02v-.03h.02v-.03h.02l.03-.08h0l.1-.29v-.03l.02-.1h0v-.11h.01v-.24c.01-.07-.03-.13-.1-.15-.07-.02-.14,.02-.17,.08l-.03,.07v-.03h0v.02h0v.02h0v.02h0v.02h0v.02h0v.02h0v.02h0v.02h0v.02h0v.04h0l-.06,.35h0v.12h-.02v.03h0v.02h0v.02h0v.02h0v.02h0v.02h0v.02h0v.02h0v.05l.02,.02,.02,.05h0l.05,.12v.02h.02v.02h.01v.02h.02v.02h.03v.02h.04v.02h.13l.02-.02h.03l.02-.02h.03v-.02h.03l.02-.03h0l.02-.02h0l.02-.02h0l.02-.02h0l.02-.02h0l.02-.02h0l.02-.02h0v-.02h.02l.04-.06h0l.04-.08h0l.04-.08h0l.08-.19h0l.06-.13h0l.05-.11h0l.1-.21h0v-.03h.02v-.03h.02l.05-.05h.03v-.02h0v-.02h0v-.02h0v-.02h0v-.02h0v-.02h.02v-.02h0l-.1,.03h-.04l-.02,.03h-.03v.02h-.03v.02l-.03,.02h0l-.02,.02h0l-.02,.02h0l-.02,.02h0l-.02,.02h0l-.02,.02h0l-.02,.02h0l-.02,.02h0l-.02,.02h0l-.02,.03h0v.03h-.02v.03h-.02l-.03,.07h0l-.03,.08h0l-.03,.08h0l-.03,.09h0l-.05,.22h0v.02h0v.02h0v.02h0v.02h0v.02h0v.02h0v.02h0v.02h0v.02h0v.02h0v.02h0v.02h0v.02h0v.02h0v.02h0v.02h.01v.02h.01v.02h.01v.02h.01v.02h.01v.02h.01v.02h.02v.02h.03v.02h.02v.03h.03v.02h.02l.02,.02h.02l.02,.02h.02l.02,.02h.05l.05,.02h.2l.02-.02h.04v-.02h.02l.02-.02h.02v-.02h.03v-.03h.02l.04-.04h0l.05-.05h0l.05-.06h0l.04-.06h0l.09-.14,.05-.07h0l.02-.02h0v-.03h.02v-.03h.02v-.03h.01v-.03h.01v-.03h.01v-.03h.01v-.03h0v-.03h0v-.03h0v-.03h0v-.03h0v-.12l-.02-.06v.03h0c0-.05-.04-.1-.09-.1-.05,0-.09,.04-.1,.09v.06h0v.03h0v.03h0v.03h0v.03h0v.03h0v.03h0v.03h0v.09h0v.07h0v.02h0v.02h0v.02h0v.02h0v.02h0v.02h0v.02h0v.02h0v.02h0v.02h0v.02h.01v.03h.02v.02h.01v.02h.02v.02h.01v.02h.03v.02h.03v.02h.03v.02h.03v.02h.05v.02h.27v-.02h.03v-.02h.02l.03-.02h.02l.03-.04h0l.03-.04h0l.03-.04h0l.03-.04h0l.03-.04h0l.03-.04h0l.02-.04h0l.05-.1h0l.06-.1h0l.06-.16h0l.07-.17v.02h0v-.02h0v-.02h.02v-.02h.02l.03-.03h-.06l-.03-.02,.05,.07v.03h0v.06h.01v.06h.01v.06h0v.06h0v.06h0v.06h0v.12h0v.13h0s.03,.09,.08,.1c.05,0,.09-.02,.11-.06l.06-.16h0l.05-.18h0l.18-.47h0l.03-.08h-.01v.02h-.05l-.05-.03h0v.02h0v.02h0v.02h0v.02h0v.02h0v.02h0v.03h0v.08h0l.02,.11h0v.1h.01v.27h.01v.02h0v.02h0v.02h0v.02h0v.02h0v.02h0v.02h0l.02,.05h0v.02h0v.02h.01v.02h.02v.02h.02v.02h.04v.02h.12v-.02h.02v-.02h.02v-.02h.01v-.02h0v-.02h0v0l.04-.06h0l.05-.06h0l.05-.07h0l.05-.07h0l.04-.07h0l.04-.07h0l.04-.08h0l.06-.15v-.18h.01v-.07h0s-.02-.06-.05-.08c-.03-.02-.07-.01-.09,0h-.02v.02h-.02v.02h-.01v.02h-.02v.02h-.02v.02h-.01v.02h0v.02h0v.02h0v.02h0v.03h0l-.06,.2h0v.11h-.02v.1h-.01v.29h0v.03h0v.02h0v.02h0v.02h0v.02h0v.02h0v.02h0v.02h0v.02h0v.02h0v.02h.01v.02h.01v.02h.01l.03,.05h.01v.02h.02v.02h.02v.02h.02v.02h.03v.02h.05v.02h.21l.02-.02h0l.02-.02h.02v-.02h.02v-.02h.02v-.02l.02-.02h0l.02-.02h0l.02-.02h0l.02-.02h0l.02-.02h0v-.02h.02v-.02h.02v-.02h.01v-.02h.01v-.02h.01l.03-.07h0l.03-.08h0l.03-.08h0l.05-.24v-.05h0v-.04h0v-.04h0v-.04h0v-.04h0v-.04h0v-.04h0v-.04h0v-.04h-.01v-.04h-.01v-.04h-.02v-.04h-.02l-.05-.1v-.02h-.02v-.02h-.02v-.02h-.02v-.02h-.03v-.02h-.04v-.02h-.06v-.02h-.12v.02h-.04v.02h-.04v.02h-.03v.02h-.03v.02h-.03v.03h-.03v.02h-.02v.03h-.01v.02h-.01v.02h-.01v.02h-.01l-.02,.04v.04h-.01v.02h0v.02h0v.02h0v.02h0v.02h0v.02h0v.02h0v.02h0v.02h0v.02h0v.02h0v.02h0v.02h0v.02h0v.02h0v.02h0v.02h0v.02h.01v.02h.01v.02h.01v.02h.01l.03,.03h0l.02,.02h0l.02,.02h0l.02,.02h0l.02,.02h0l.02,.02h0l.02,.02h0l.02,.02h0l.02,.02h0l.02,.02h.03v.02h.03l.02,.02h.03l.07,.04h.27l.02-.02h.03l.02-.02h.03l.02-.02h.03v-.02h.03v-.02h.03v-.02h.02v-.02l.02-.02h0l.02-.02h0l.02-.02h0l.02-.02h0l.02-.02h0l.02-.02h0l.02-.02h0v-.02h.02v-.02h.02v-.03h.01v-.03h.01v-.03h.01v-.03h.01v-.03h0v-.03h0v-.03h0v-.03h0v-.06h0v-.05h0v-.06h0v-.06h0v-.06h0v-.06h0v-.06h0v-.06h0v-.06h0v-.06h0v-.06h-.01v-.06h-.02l-.05-.15h0l-.06-.13h0l-.07-.12h0l-.07-.12h0l-.08-.11h0l-.08-.11h0l-.09-.11h0l-.09-.1h0l-.09-.1h0l-.1-.09h0l-.1-.09h0l-.11-.08h0l-.28-.19h0l-.32-.19h0l-.33-.17h0l-.99-.41h0l-.38-.13h0l-.88-.23h0l-.54-.12h0l-1.4-.16h-.01l-1.98-.04h0l-1.3,.06h0l-1.78,.15h0l-.36,.05h0l-.36,.07h-.01l-1.01,.29h-.01l-.13,.05h0l-.13,.06h0l-.12,.06h0l-.12,.07h0l-.12,.07h0l-.11,.08h0l-.11,.08h0l-.23,.2h0l-.07,.07h0l-.06,.07h0l-.06,.07h0l-.06,.08h0l-.05,.08h0l-.05,.08h0l-.05,.08h0l-.04,.09h0l-.04,.09h0l-.04,.09h0l-.03,.09h0l-.07,.23h0l-.02,.1h0v.09h-.01v.09h0v.09h0v.09h0v.09h0v.09h0v.09h0v.09h.01l.02,.09h0l.04,.18h0l.03,.09h0l.03,.09h0l.04,.09h0l.04,.08h0l.04,.08h0l.05,.08h0l.05,.08h0l.05,.07h0l.06,.07h0l.17,.19h0l.13,.12h0l.14,.11h0l.14,.11h0l.15,.1h0l.15,.09h0l.15,.09h0l.16,.08h0l.16,.07h0l.16,.06h0l.17,.06h0l.49,.13h0l.24,.04h0l.24,.03h0l.65,.04h.27l.27-.02h0l.58-.07h0l.47-.09s.02-.01,.02-.03c0-.01-.01-.02-.03-.02l-.47,.09h0l-.58,.07h-.53l-.65-.04h0l-.24-.04h0l-.24-.05h0l-.49-.13h0l-.16-.06h0l-.16-.07h0l-.16-.08h0l-.15-.08h0l-.15-.09h0l-.15-.09h0l-.14-.1h0l-.14-.11h0l-.13-.11h0l-.13-.12h0l-.17-.18h0l-.05-.06h0l-.05-.07h0l-.05-.07h0l-.04-.07h0l-.04-.08h0l-.04-.08h0l-.03-.08h0l-.03-.08h0l-.03-.08h0l-.04-.16h0v-.08h-.01v-.08h0v-.08h0v-.08h0v-.08h0v-.08h0v-.08h.01l.02-.08h0l.02-.08h0l.02-.08h0l.07-.22h0l.03-.08h0l.04-.08h0l.04-.08h0l.04-.07h0l.05-.07h0l.05-.07h0l.06-.07h0l.06-.07h0l.06-.06h0l.06-.06h0l.07-.06h0l.23-.18h0l.11-.07h0l.11-.07h0l.12-.06h0l.12-.06h0l.12-.05h0l.13-.05h0l.13-.04h-.01l1.01-.28h-.01l.36-.06h0l.36-.05h0l1.78-.14h0l1.3-.05h1.96l1.41,.12h0l.55,.09h0l.88,.23h0l.38,.13h0l.99,.41h0l.33,.17h0l.32,.18h0l.28,.18h0l.1,.08h0l.1,.08h0l.1,.09h0l.09,.09h0l.09,.1h0l.08,.1h0l.08,.1h0l.08,.11h0l.07,.11h0l.06,.11h0l.06,.12h0l.05,.14h0v.04h.01v.05h.01v.05h0v.05h0v.05h0v.05h0v.05h0v.05h0v.05h0v.05h0v.05h0v.06h0v.02h0v.02h0v.02h0v.02h0v.02h0v.02h0v.02h0v.02h0v.02h-.01v.02h-.01v.02h-.01l-.02,.02h0l-.02,.02h-.01l-.02,.03h-.01l-.02,.03h-.01l-.02,.02h-.02l-.02,.02h-.02l-.02,.02h-.04l-.02,.02h-.24l-.03-.02h-.02l-.02-.02h-.02l-.02-.02h-.02l-.02-.03h-.01l-.02-.03h0l-.02-.02h0l-.02-.02h0l-.02-.02h0l-.02-.02h0l-.03-.03h0v-.02h-.01v-.02h-.01v-.02h0v-.03h0v-.03h0v-.03h0v-.03h0v-.03h0v-.03h0v-.03h0v-.04h.02v-.02h.01v-.02h.02v-.02h.03v-.02h.03v-.02h.05v-.02h.12v.02h0l.05,.08h0l.02,.03h0v.03h.01v.03h.01v.03h0v.03h0v.03h0v.03h0v.03h0v.03h0v.03h0v.03h0v.03h0l-.05,.21h0l-.03,.07h0l-.03,.07h0l-.03,.06h0v.03h-.01v.02h0v.02h-.01v.02h-.01v.02h-.03l-.02,.03h-.01l-.02,.03h-.01l-.02,.02h-.01l-.02,.02h-.13v-.02h-.02v-.02h-.01l-.03-.05h0v-.03h-.02v-.03h-.01v-.03h0v-.02h0v-.02h0v-.02h0v-.02h0v-.02h0v-.02h0v-.02h0v-.29h0v-.09h.01v-.09h.01l.06-.19h0v-.03h0v-.02h0v-.02h.02v-.02h.02s.05-.08,.03-.12c-.02-.04-.06-.06-.1-.06-.04,0-.07,.04-.07,.09h0v.07h0v.11l-.06,.15h0l-.04,.07h0l-.04,.07h0l-.04,.06h0l-.04,.06h0l-.05,.06h0l-.05,.06h0l-.05,.06-.02,.02h.03l-.02-.04h0v-.02h0v-.03h0v-.03h0v-.28h-.01v-.12h-.01l-.02-.11h0v-.06h0v-.02h0v-.02h0v-.02h0v-.02h0v-.02h0v-.02h0v-.02h0v-.02h0v-.02h0v-.02h0v-.02h-.01v-.02h0v-.03s-.04-.03-.06-.04h-.11v.02h-.02v.02h-.01v.02h0v.02h0l-.03,.07h0v.03h0l-.18,.48h0l-.05,.18h0l-.06,.16s0,.08,.03,.1c.03,.03,.07,.03,.1,.01,.03-.02,.06-.05,.05-.09h0v-.13h0v-.13h0v-.07h0v-.07h0v-.07h0v-.07h0v-.06h-.01v-.06h-.02l-.02-.06v-.03l-.06-.07-.03-.03h-.03v-.02h-.1v.02h-.02l-.03,.03h-.01v.02h-.02v.02h-.02v.02h-.01v.03h0v.02h-.01v.03l-.08,.17h0l-.06,.15h0l-.06,.1h0l-.05,.1h0l-.02,.03h0l-.02,.03h0l-.03,.03h0l-.03,.03h0l-.03,.03h0l-.03,.03h0l-.03,.03h-.03v.02h-.07v.02h-.09v-.02h-.03v-.02h-.02v-.02h-.02v-.02h-.02v-.02h-.01v-.02h0v-.02h0v-.02h0v-.02h0v-.02h0v-.02h0v-.1h0v-.08h0v-.02h0v-.03h0v-.03h0v-.03h0v-.03h0v-.03h0v-.03h0v-.05l.02-.06s-.01-.07-.04-.09c-.03-.02-.07-.02-.1,0-.03,.02-.05,.05-.05,.08h0v.03l.02,.06v.04h0v.02h0v.02h0v.02h0v.02h0v.02h0v.02h0v.02h0v.02h0v.02h-.01v.02h-.01l-.02,.02h0l-.02,.02h0l-.05,.07-.09,.13h0l-.05,.05h0l-.05,.05h0l-.05,.05h0l-.04,.03h-.02v.02h-.03l-.02,.02h-.03l-.02,.02h-.18l-.02-.02h-.02l-.02-.02h0v-.02h-.02v-.02h-.02v-.02h-.02v-.02h-.02v-.02h-.02v-.02h-.01v-.03h-.01v-.03h0v-.03h0v-.03h0v-.03h0v-.03h0v-.03h0v-.03h0l.05-.21h0l.03-.07h0l.03-.08h0l.03-.07h0l.03-.06h0v-.02h.01v-.02h.01l.02-.02h0l.02-.02h0l.02-.02h0l.02-.02h0l.02-.02h0l.02-.02h.01l.02-.03h.01l.02-.03h.02l.02-.02h.04v-.02l.1-.04h.04v-.02h.02v-.02h.01v-.02h.01v-.02h0v-.02h0v-.02h0v-.02h0v-.02h0v-.02h0v-.02h0v-.02h-.01v-.02h-.02v-.02h-.03v-.02h-.03v-.02h-.2v.02h-.03v.02l-.06,.04h0l-.02,.02h0l-.02,.02h0v.02h-.02v.02h-.02v.02h-.02l-.11,.22h0l-.05,.12h0l-.06,.13-.08,.18h0l-.04,.07h0l-.04,.07h0l-.04,.05h0l-.02,.02h0l-.02,.02h0l-.02,.02h-.01l-.02,.02h-.01l-.02,.02h-.03l-.02,.02h.04v.02h0v.03l-.02-.13v-.04h0v-.05h0v-.02h0v-.02h0v-.02h0v-.04l.02-.12h0l.06-.34h0v-.03h0v-.02h0v-.02h.01v-.03l.05-.07c.03-.06,.02-.12-.02-.16-.04-.04-.1-.06-.16-.04-.06,.02-.1,.07-.1,.13v.23h-.01v.09h-.01l-.02,.09v-.03l-.1,.29h0l-.03,.06h0v.02h0v.02h-.01v.02h-.01l-.02,.02h0l-.02,.02h0l-.02,.02h0l-.07,.11h0l-.06,.08h0l-.03,.02h0l-.03,.02h0l-.03,.02h0l-.03,.02h0l-.02,.03h-.05l.05,.03-.03-.02h0v-.02h-.02v-.02h-.01v-.02h-.01v-.02h-.01v-.02h0l-.04-.12h0v-.03h0v-.04h0v-.04h-.01l-.1-.39v.02l-.07-.5h0l-.03-.27h0l-.05-.92h0v-.31h0l.12-1.06h0l.04-.32h0l.02-.19h0v-.08h.01l.02-.08h0l.02-.08h0l.03-.08h0l.03-.08h0l.03-.08h0l.04-.08v.03l.04-.08h0l.02-.02h0l.02-.02h0l.03-.02h0l.03-.02h0l.03-.02h0l.03-.02h.02l-.05-.02h0l.06,.43h0l.07,.67h0v.81h0l-.03,.37h0l-.04,.38h0l-.11,.54h0l-.13,.43h0l-.07,.19h0l-.08,.18h0l-.18,.33h0l-.07,.1h0l-.07,.1h0l-.08,.1h0l-.08,.1h0l-.09,.09h0l-.09,.09h0l-.09,.09h0l-.1,.08h0l-.09,.06h0l-.03,.02h0l-.04,.02h0l-.04,.02h-.03l-.04,.03h-.03l-.04,.02h-.07l-.04,.02h-.26l-.04-.02h-.03l-.04-.02h-.03l-.04-.03h0l-.04-.02h0l-.04-.02h0l-.04-.02h0l-.03-.02h0l-.33-.22h0l-.12-.1h0l-.12-.11h0l-.12-.11h0l-.11-.12h0l-.11-.12h0l-.1-.12h0l-.22-.32h0l-.08-.13h0l-.07-.14h0l-.07-.14h0l-.06-.14h0l-.06-.15h0l-.05-.15h0l-.04-.15h0l-.03-.15h0l-.03-.15h0l-.02-.15h0l-.02-.15h0v-.15h0v-.09h0v-.03h0v-.03h0v-.03h0v-.03h0v-.03h0v-.03h0v-.03h.01v-.03h.01l.02-.03h0l.02-.03h0l.02-.03h0l.02-.02h0l.03-.04h0l.02-.03h.01l.02-.02h.01l.02-.02h.01l.02-.02h.01l.02-.02h.03l.02-.02h.25v.02h.03v.02h.03v.02h.02v.02h.02v.02h.01v.02h.01v.02h.01v.02h0l.03,.08h0v.04h.01v.04h.01v.04h0v.04h0v.04h0v.04h0v.04h0l-.03,.04s0,.02,0,.03c0,0,.02,0,.03,0Z"/><path d="M52.52,157.29h0v.18h0s0,.03,.01,.04c.01,0,.02,0,.03-.01v-.02h.04s.1,0,.14-.03l.03-.02s.06-.11,.03-.17-.09-.09-.15-.09c-.06,0-.12,.06-.13,.12Z"/><path d="M54.09,157.82h0s-.09,0-.12,.03c-.03,.03-.06,.07-.06,.11v.02c0,.07,.04,.13,.11,.14h.02s.08,0,.11-.03c.03-.03,.05-.06,.06-.1h0c0-.08-.04-.15-.11-.16Z"/><path d="M43.02,155.82h0c0-.07-.03-.13-.09-.16-.06-.03-.13,0-.17,.04h0s-.04,.1-.02,.15h0s.03,.05,.04,.06h0s.1,.04,.15,.02c.05-.02,.08-.07,.09-.12Z"/></g><text class="c" transform="translate(93.08 71.06) rotate(-59.36)"><tspan class="h" x="0" y="0">3.</tspan><tspan class="g" x="1.69" y="0">3V</tspan></text><g><path class="f" d="M23.4,6.14c-1.2,0-2.04-.45-2.31-1.55l.52-.09c.21,.88,1,1.14,1.8,1.14,.73,0,1.58-.38,1.58-1.25,0-1.79-3.69-.74-3.69-2.85C21.29,.48,22.25,0,23.22,0s1.64,.34,2.07,1.17l-.47,.21c-.34-.65-.87-.88-1.6-.88-.59,0-1.38,.23-1.38,1.02,0,1.56,3.69,.58,3.69,2.85,0,1.14-1.04,1.75-2.12,1.75Z"/><path class="f" d="M31.56,6.06h-.53V1.37l-1.78,4.69h-.46l-1.77-4.67V6.06h-.53V.07h.54l1.99,5.26L31.03,.07h.53V6.06Z"/><path class="f" d="M37.49,6.06h-.57l-.68-1.78h-2.73l-.67,1.78h-.58L34.57,.07h.62l2.3,6Zm-1.43-2.25l-1.19-3.13-1.19,3.13h2.37Z"/><path class="f" d="M40.61,3.3c.19,.13,.34,.34,.47,.56l1.34,2.21h-.63l-1.27-2.14c-.18-.3-.39-.58-.82-.58h-.94v2.72h-.53V.07h2.06c1.13,0,1.93,.48,1.93,1.65,0,.9-.56,1.45-1.62,1.58Zm-.32-2.71h-1.53V2.86h1.53c.77,0,1.39-.26,1.39-1.14s-.64-1.13-1.39-1.13Z"/><path class="f" d="M47.16,.59h-1.91V6.06h-.53V.59h-1.91V.07h4.35V.59Z"/><path class="f" d="M51.86,6.06h-3.9V.07h1.42V4.68h2.48v1.38Z"/><path class="f" d="M54.26,6.06h-1.43V.07h1.43V6.06Z"/><path class="f" d="M59.98,2.64v3.43h-1.19v-.31c-.3,.29-.68,.38-1.09,.38-1.81,0-2.53-1.49-2.53-3.07s.73-3.07,2.57-3.07c1.02,0,1.59,.4,2.18,1.2l-1,.9c-.31-.42-.61-.7-1.19-.7-.98,0-1.14,.88-1.14,1.66s.17,1.66,1.16,1.66c.56,0,.81-.4,.81-.88h-.99v-1.21h2.41Z"/><path class="f" d="M65.73,6.06h-1.43V3.67h-1.89v2.4h-1.43V.07h1.43V2.32h1.89V.07h1.43V6.06Z"/><path class="f" d="M71.36,1.48h-1.67V6.06h-1.43V1.48h-1.66V.07h4.75V1.48Z"/><path class="f" d="M74.29,6.15c-1.31,0-2.16-.64-2.5-1.9l1.35-.27c.16,.54,.52,.81,1.15,.81,.38,0,.9-.19,.9-.61,0-.88-3.21-.21-3.21-2.41,0-1.19,1.08-1.78,2.15-1.78,1.14,0,1.84,.44,2.34,1.43l-1.24,.55c-.25-.44-.51-.66-1.1-.66-.27,0-.72,.13-.72,.46,0,.72,3.21,.22,3.21,2.41,0,1.26-1.16,1.97-2.33,1.97Z"/><path class="f" d="M37.16,16.38h-.14v-3.06h-3.93v3.06h-.14v-6h.14v2.82h3.93v-2.82h.14v6Z"/><path class="f" d="M41.5,16.38h-.14v-.69c-.42,.58-.96,.77-1.41,.77-1.19,0-1.62-.61-1.62-1.79v-2.39h.14v2.4c0,1.01,.31,1.64,1.49,1.64,.56,0,1.41-.42,1.41-1.14v-2.9h.14v4.09Z"/><path class="f" d="M44.23,16.46c-.48,0-1.07-.12-1.41-.82v.73h-.15v-6h.13v2.65c.36-.68,.95-.82,1.4-.82,1.3,0,1.64,1.01,1.64,2.14s-.34,2.12-1.61,2.12Zm-.02-4.12c-.74,0-1.41,.46-1.41,1.26v1.46c0,.8,.67,1.26,1.41,1.26,1.31,0,1.5-1.06,1.5-1.98s-.19-2-1.5-2Z"/><path class="f" d="M48.28,10.38h.18c-.8,.71-1.33,1.98-1.33,3s.53,2.29,1.33,3h-.18c-.82-.76-1.32-1.93-1.32-3s.51-2.26,1.32-3Z"/><path class="f" d="M54.36,16.38h-.14v-5.76l-2.14,5.76h-.27l-2.12-5.74v5.74h-.14v-6h.18l2.23,5.97,2.22-5.97h.19v6Z"/><path class="f" d="M55.85,10.89c-.14,0-.24-.11-.24-.25,0-.13,.1-.23,.24-.23,.13,0,.25,.1,.25,.23,0,.14-.12,.25-.25,.25Zm.07,5.49h-.15v-4.09h.15v4.09Z"/><path class="f" d="M60.48,16.38h-.14v-2.34c0-.98-.32-1.7-1.5-1.7-.81,0-1.4,.64-1.4,1.2v2.83h-.14v-4.09h.15v.76c.33-.63,.92-.84,1.39-.84,1.18,0,1.63,.73,1.63,1.85v2.33Z"/><path class="f" d="M61.83,10.89c-.14,0-.24-.11-.24-.25,0-.13,.1-.23,.24-.23,.13,0,.25,.1,.25,.23,0,.14-.12,.25-.25,.25Zm.07,5.49h-.15v-4.09h.15v4.09Z"/><path class="f" d="M63.57,16.38h-.18c.8-.7,1.33-1.99,1.33-3s-.53-2.29-1.33-3h.18c.82,.74,1.32,1.93,1.32,3s-.5,2.24-1.32,3Z"/></g></svg>